<svg xmlns="http://www.w3.org/2000/svg" width="345" height="345" fill="none"><circle cx="172.5" cy="172.5" r="172.5" fill="#000"/><path fill="#EC1C24" d="M109.258 238.768c-.752.376-1.629.627-2.632.752-1.002.251-2.193.439-3.572.564a24.28 24.28 0 0 1-3.008.188 22.87 22.87 0 0 1-2.82-.188c.377-8.523.815-15.792 1.317-21.808a1250.03 1250.03 0 0 1 2.255-20.304c1.128-11.531 2.758-23.563 4.888-36.096 2.131-12.533 4.512-24.44 7.144-35.72-4.762 3.885-9.901 7.833-15.415 11.844-5.515 3.885-11.594 7.959-18.237 12.22-1.88-1.629-3.383-3.196-4.511-4.7-1.129-1.629-2.257-3.572-3.385-5.828 10.278-5.64 19.803-11.656 28.577-18.048 8.898-6.392 16.982-13.097 24.251-20.116 2.131 1.128 3.76 2.131 4.888 3.008a39.044 39.044 0 0 1 3.572 2.82c-4.762 12.283-9.337 30.769-13.724 55.46-4.261 24.691-7.457 50.008-9.588 75.952Z"/><path fill="#FFE84A" d="M172.529 183.788c-5.544 0-10.362-1.98-14.454-5.94-3.96-4.092-5.94-8.91-5.94-14.454 0-5.544 1.98-10.296 5.94-14.256 4.092-4.092 8.91-6.138 14.454-6.138 5.544 0 10.296 2.046 14.256 6.138 4.092 3.96 6.138 8.712 6.138 14.256 0 5.544-2.046 10.362-6.138 14.454-3.96 3.96-8.712 5.94-14.256 5.94Zm0 58.41c-5.544 0-10.362-1.98-14.454-5.94-3.96-4.092-5.94-8.91-5.94-14.454 0-5.544 1.98-10.296 5.94-14.256 4.092-4.092 8.91-6.138 14.454-6.138 5.544 0 10.296 2.046 14.256 6.138 4.092 3.96 6.138 8.712 6.138 14.256 0 5.544-2.046 10.362-6.138 14.454-3.96 3.96-8.712 5.94-14.256 5.94Z"/><path fill="#00ADEF" d="M270.708 223.729c0 6.768-1.714 11.69-5.142 14.766-3.427 3.076-8.789 4.614-16.084 4.614-7.382 0-12.788-1.538-16.215-4.614-3.428-3.076-5.142-7.998-5.142-14.766v-88.066a15.19 15.19 0 0 0-.396-3.428c-.263-1.23-.747-2.285-1.45-3.164-.703-.967-1.67-1.758-2.9-2.373-1.231-.615-2.813-.923-4.746-.923-1.758 0-3.472.352-5.142 1.055a32.4 32.4 0 0 0-4.614 2.373 51.542 51.542 0 0 0-4.746 3.296l-3.296-4.351c10.811-8.525 20.61-14.633 29.399-18.325 8.877-3.779 17.183-5.669 24.917-5.669 4.571 0 8.306 1.363 11.206 4.087 2.901 2.637 4.351 6.856 4.351 12.656v102.832Z"/></svg>