<svg xmlns="http://www.w3.org/2000/svg" width="320" height="326" fill="none"><circle cx="160" cy="166" r="160" fill="#000"/><path fill="#00ADEF" d="m55.9 120.724-2.04-8.164 38.13-17.627h7.236V222.96l19.018 3.804V234h-61.23v-7.236l24.77-3.804V114.693L55.9 120.724Z"/><path fill="#E8E7EB" d="M159.029 175.788c-5.544 0-10.362-1.98-14.454-5.94-3.96-4.092-5.94-8.91-5.94-14.454 0-5.544 1.98-10.296 5.94-14.256 4.092-4.092 8.91-6.138 14.454-6.138 5.544 0 10.296 2.046 14.256 6.138 4.092 3.96 6.138 8.712 6.138 14.256 0 5.544-2.046 10.362-6.138 14.454-3.96 3.96-8.712 5.94-14.256 5.94Zm0 58.41c-5.544 0-10.362-1.98-14.454-5.94-3.96-4.092-5.94-8.91-5.94-14.454 0-5.544 1.98-10.296 5.94-14.256 4.092-4.092 8.91-6.138 14.454-6.138 5.544 0 10.296 2.046 14.256 6.138 4.092 3.96 6.138 8.712 6.138 14.256 0 5.544-2.046 10.362-6.138 14.454-3.96 3.96-8.712 5.94-14.256 5.94Z"/><path fill="#EC1C24" d="M256.253 100.416c-2.773 22.741-4.16 45.968-4.16 69.68 0 23.573.971 44.789 2.912 63.648l-27.872-2.704c-.971-16.224-1.456-32.032-1.456-47.424 0-15.531.555-30.229 1.664-44.096l-11.648 15.6-15.808-13.312c8.736-12.757 17.957-28.427 27.664-47.008l28.704 5.616Z"/></svg>