<svg xmlns="http://www.w3.org/2000/svg" width="345" height="345" fill="none"><circle cx="172.5" cy="172.5" r="172.5" fill="#000"/><path fill="#FFE84A" d="M117.259 210.546c0 8.185.387 14.599 1.16 19.239.773 4.576 1.353 7.799 1.74 9.668-3.867 2.192-7.67 3.287-11.408 3.287-3.352 0-6.123-.677-8.314-2.03-2.127-1.418-3.19-3.964-3.19-7.638V116.67l-24.75 8.894-3.191-8.121c2.965-1.998 6.832-4.125 11.601-6.381a116.229 116.229 0 0 1 15.179-5.994c5.285-1.675 10.087-2.513 14.405-2.513 2.965 0 4.834.58 5.608 1.74.773 1.096 1.16 2.836 1.16 5.221v101.03Z"/><path fill="#00ADEF" d="M172.529 183.788c-5.544 0-10.362-1.98-14.454-5.94-3.96-4.092-5.94-8.91-5.94-14.454 0-5.544 1.98-10.296 5.94-14.256 4.092-4.092 8.91-6.138 14.454-6.138 5.544 0 10.296 2.046 14.256 6.138 4.092 3.96 6.138 8.712 6.138 14.256 0 5.544-2.046 10.362-6.138 14.454-3.96 3.96-8.712 5.94-14.256 5.94Zm0 58.41c-5.544 0-10.362-1.98-14.454-5.94-3.96-4.092-5.94-8.91-5.94-14.454 0-5.544 1.98-10.296 5.94-14.256 4.092-4.092 8.91-6.138 14.454-6.138 5.544 0 10.296 2.046 14.256 6.138 4.092 3.96 6.138 8.712 6.138 14.256 0 5.544-2.046 10.362-6.138 14.454-3.96 3.96-8.712 5.94-14.256 5.94Z"/><path fill="#EC1C24" d="M217.354 231.795c7.174 0 11.782-.557 13.823-1.67 2.103-1.175 3.432-2.381 3.989-3.618.619-1.237.928-2.783.928-4.639v-80.063c0-4.453-.402-7.36-1.206-8.721-.742-1.361-2.845-2.041-6.309-2.041h-12.153v-10.205c7.484 0 13.823-1.948 19.018-5.845 5.196-3.896 7.793-7.886 7.793-11.968l13.36-.185-.093 119.028c0 3.897.835 6.34 2.505 7.329 2.783 1.732 8.164 2.598 16.142 2.598V242h-57.797v-10.205Z"/></svg>